<?xml version="1.0" encoding="UTF-8"?>
<svg version="1.1" xmlns="http://www.w3.org/2000/svg" width="288" height="288">
<path d="M0 0 C0 0.66 0 1.32 0 2 C-0.94359375 2.27972656 -1.8871875 2.55945312 -2.859375 2.84765625 C-10.77244914 5.2865891 -17.56922099 8.1227345 -24.609375 12.546875 C-27 14 -27 14 -30 15 C-30 15.66 -30 16.32 -30 17 C-31.65385233 18.34919532 -33.321702 19.68133728 -35 21 C-35.99 22.485 -35.99 22.485 -37 24 C-37.66 24 -38.32 24 -39 24 C-39.34611328 24.78117187 -39.34611328 24.78117187 -39.69921875 25.578125 C-41.45254104 28.84256889 -43.63267083 31.76369782 -45.8125 34.75 C-46.72122828 36.0186896 -47.62879333 37.28821324 -48.53515625 38.55859375 C-49.86218214 40.41682716 -51.19668057 42.26470543 -52.55859375 44.09765625 C-64.12493771 60.74560707 -66.64573625 85.23773165 -63.56494141 104.75634766 C-61.0686323 116.83115345 -56.80967863 127.40481637 -50.26953125 137.8359375 C-49 140 -49 140 -48 143 C-47.34 143 -46.68 143 -46 143 C-42.73439129 133.20317387 -40.92931601 123.12559281 -39 113 C-39.90105469 112.73832031 -40.80210938 112.47664063 -41.73046875 112.20703125 C-44.90779048 111.03404151 -46.78953599 109.89693062 -49.3125 107.6875 C-49.98925781 107.11386719 -50.66601562 106.54023438 -51.36328125 105.94921875 C-53.29654877 103.64683093 -53.64957243 101.9507017 -54 99 C-49.22268819 94.44846979 -44.62280328 91.65159479 -38.5625 89.125 C-31.70325586 86.07710082 -26.76470149 82.92151604 -22 77 C-13.53644154 66.84008177 -13.53644154 66.84008177 -5.625 65.375 C4.6901615 61.46235253 10.6986094 48.10293889 16.29638672 39.04125977 C17.43169259 37.21162872 18.5922814 35.40032099 19.7578125 33.58984375 C20.4295752 32.51597412 21.10133789 31.44210449 21.79345703 30.33569336 C24 28 24 28 27.07373047 27.72485352 C28.03939941 27.81565186 29.00506836 27.9064502 30 28 C31.010625 27.608125 32.02125 27.21625 33.0625 26.8125 C36 26 36 26 38.625 27.0625 C43.40700305 30.96360775 45.95963166 35.18495024 48 41 C48.1875 44.4375 48.1875 44.4375 48 47 C48.67546875 46.95359375 49.3509375 46.9071875 50.046875 46.859375 C57.36074839 46.56343793 57.36074839 46.56343793 60.5625 48.75 C63.32644269 53.07617116 63.26843796 56.89967879 63 62 C62.11530967 65.53876134 60.54433945 67.56654893 58.125 70.1875 C47.45974567 82.17274519 44.9270603 104.27222382 45.55859375 119.69921875 C45.94511476 124.7063727 47.41135097 129.17179737 49.1015625 133.8828125 C51.43497168 141.97872782 50.40231876 150.63563453 48.51171875 158.734375 C47.74429582 162.13212536 47.38442228 165.5401995 47 169 C63.96050935 160.48750101 79.97628663 146.93109107 89 130 C89.60328125 128.8759375 90.2065625 127.751875 90.828125 126.59375 C94.48631239 119.60004415 97.536097 112.49883523 100 105 C100.99 105.33 101.98 105.66 103 106 C103.33 107.65 103.66 109.3 104 111 C104.99 108.03 105.98 105.06 107 102 C109.97 102.99 109.97 102.99 113 104 C113.66080579 126.43068545 108.06564277 149.43823043 95 168 C94.34 168 93.68 168 93 168 C92.6596875 169.0828125 92.6596875 169.0828125 92.3125 170.1875 C90.72668125 173.58568303 88.73876676 175.45230999 86 178 C84.33195535 179.66528755 82.66543256 181.33210014 81 183 C59.11033331 204.81742357 31.07395289 211.87885913 0.8125 212.375 C-29.56227402 212.31868669 -57.14613882 200.89690772 -79.1875 180.25 C-94.77085147 163.83242201 -105.71959949 142.4669291 -109 120 C-109.11085938 119.25105469 -109.22171875 118.50210938 -109.3359375 117.73046875 C-112.50133663 91.9367434 -107.32451027 65.70346216 -92.09375 44.32421875 C-90.12898631 41.81758571 -88.08734457 39.40515455 -86 37 C-85.33484375 36.17886719 -84.6696875 35.35773438 -83.984375 34.51171875 C-77.90403388 27.27160886 -70.83909996 22.14987585 -63 17 C-61.69869141 16.13375 -61.69869141 16.13375 -60.37109375 15.25 C-48.64369793 7.83102143 -36.50107593 3.99056654 -23.01806641 1.39501953 C-21.26013989 1.0509202 -19.51000213 0.66749143 -17.76171875 0.27734375 C-11.6016726 -1.03830967 -6.21766145 -0.99806279 0 0 Z M102 114 C103 116 103 116 103 116 Z " fill="#020000" transform="translate(141,39)"/>
<path d="M0 0 C-2.92831146 1.95220764 -5.31789503 2.8613512 -8.625 4 C-24.3886798 10.01023243 -37.75110237 19.25355942 -48.625 32.1875 C-49.800625 33.5796875 -49.800625 33.5796875 -51 35 C-51.66 35 -52.32 35 -53 35 C-53.25394531 35.53496094 -53.50789063 36.06992188 -53.76953125 36.62109375 C-54.67876327 38.37894233 -55.66847679 40.09568725 -56.69921875 41.78515625 C-70.8872746 65.17175518 -76.67797376 91.9620297 -71 119 C-68.21802168 130.23900727 -64.78157256 140.91657134 -59 151 C-58.56300781 151.82113281 -58.12601563 152.64226562 -57.67578125 153.48828125 C-53.74291895 160.55391066 -48.65036427 166.54784202 -43.28710938 172.5546875 C-42.21192161 173.76203036 -41.15793402 174.98820967 -40.109375 176.21875 C-23.19779604 194.8062512 3.99173431 203.27888771 28.34765625 205.18359375 C45.44230304 205.68206544 64.7425994 202.97864068 80 195 C80.85722656 194.58105469 81.71445313 194.16210938 82.59765625 193.73046875 C90.43752184 189.72783695 97.59277167 184.62146859 103.6875 178.23046875 C105 177 105 177 107 177 C107.25652344 176.41734375 107.51304687 175.8346875 107.77734375 175.234375 C109.11020268 172.79860725 110.61182632 171.22037745 112.5625 169.25 C124.70455599 155.82750902 130.58555597 138.45731046 134.12597656 121.04052734 C135.68378171 113.57839854 137.73837846 106.39243231 142 100 C142.66080579 122.43068545 137.06564277 145.43823043 124 164 C123.34 164 122.68 164 122 164 C121.6596875 165.0828125 121.6596875 165.0828125 121.3125 166.1875 C119.72668125 169.58568303 117.73876676 171.45230999 115 174 C113.33195535 175.66528755 111.66543256 177.33210014 110 179 C88.11033331 200.81742357 60.07395289 207.87885913 29.8125 208.375 C-0.56227402 208.31868669 -28.14613882 196.89690772 -50.1875 176.25 C-65.77085147 159.83242201 -76.71959949 138.4669291 -80 116 C-80.11085938 115.25105469 -80.22171875 114.50210938 -80.3359375 113.73046875 C-83.50133663 87.9367434 -78.32451027 61.70346216 -63.09375 40.32421875 C-61.12898631 37.81758571 -59.08734457 35.40515455 -57 33 C-56.33484375 32.17886719 -55.6696875 31.35773438 -54.984375 30.51171875 C-48.90403388 23.27160886 -41.83909996 18.14987585 -34 13 C-32.69869141 12.13375 -32.69869141 12.13375 -31.37109375 11.25 C-22.0228132 5.336096 -11.23084554 -0.25524649 0 0 Z " fill="#DD090A" transform="translate(112,43)"/>
<path d="M0 0 C0 0.66 0 1.32 0 2 C-0.94359375 2.27972656 -1.8871875 2.55945312 -2.859375 2.84765625 C-10.77244914 5.2865891 -17.56922099 8.1227345 -24.609375 12.546875 C-27 14 -27 14 -30 15 C-30 15.66 -30 16.32 -30 17 C-31.65385233 18.34919532 -33.321702 19.68133728 -35 21 C-35.66 21.99 -36.32 22.98 -37 24 C-37.66 24 -38.32 24 -39 24 C-39.23074219 24.52078125 -39.46148437 25.0415625 -39.69921875 25.578125 C-41.45254104 28.84256889 -43.63267083 31.76369782 -45.8125 34.75 C-46.72122828 36.0186896 -47.62879333 37.28821324 -48.53515625 38.55859375 C-49.86218214 40.41682716 -51.19668057 42.26470543 -52.55859375 44.09765625 C-64.12493771 60.74560707 -66.64573625 85.23773165 -63.56494141 104.75634766 C-61.0686323 116.83115345 -56.80967863 127.40481637 -50.26953125 137.8359375 C-49 140 -49 140 -48 143 C-47.34 143 -46.68 143 -46 143 C-46 144.98 -46 146.96 -46 149 C-46.99 149 -47.98 149 -49 149 C-58.91889762 138.50442229 -65.11345444 124.7410568 -69 111 C-69.35707031 109.81019531 -69.71414062 108.62039062 -70.08203125 107.39453125 C-75.38822896 85.67780901 -69.60960888 60.97977947 -58.2734375 42.12890625 C-56.59681776 39.67522302 -54.84213064 37.33150876 -53 35 C-52.37222656 34.18273437 -51.74445313 33.36546875 -51.09765625 32.5234375 C-49.1076335 29.97778464 -47.06352665 27.48631689 -45 25 C-44.33484375 24.16339844 -43.6696875 23.32679687 -42.984375 22.46484375 C-34.46220085 12.25401657 -23.69192998 5.84153733 -11 2 C-9.88625 1.5875 -8.7725 1.175 -7.625 0.75 C-4.95126121 -0.01392537 -2.76535977 -0.16266822 0 0 Z " fill="#EBEAEB" transform="translate(141,39)"/>
<path d="M0 0 C4.72881356 3.39504563 4.72881356 3.39504563 5.8125 5.8125 C6.25597557 10.98638161 6.55243519 15.35920875 4 20 C3.05562273 21.07492354 2.09551171 22.13611232 1.125 23.1875 C-9.54025433 35.17274519 -12.0729397 57.27222382 -11.44140625 72.69921875 C-11.0540717 77.71691164 -9.57010746 82.19176595 -7.90625 86.921875 C-5.21006312 96.07961318 -7.05206491 105.55804156 -8.75 114.75 C-8.90662109 115.63244385 -9.06324219 116.5148877 -9.22460938 117.42407227 C-9.39283203 118.24834717 -9.56105469 119.07262207 -9.734375 119.921875 C-9.88100586 120.66018555 -10.02763672 121.39849609 -10.17871094 122.15917969 C-11.26889129 124.60268737 -12.56325947 125.05478748 -15 126 C-18.14123511 119.71752978 -15.70571619 110.47425124 -14 104 C-13.505 103.01 -13.505 103.01 -13 102 C-12.38508728 95.95335822 -13.2853789 91.96791659 -15.5 86.3125 C-17.95466946 79.76614696 -18.49530135 73.65736377 -18.5 66.6875 C-18.50580078 65.78104736 -18.51160156 64.87459473 -18.51757812 63.94067383 C-18.40059254 57.52225953 -17.05580211 52.05283138 -15 46 C-14.67257813 44.8553125 -14.34515625 43.710625 -14.0078125 42.53125 C-9.20738834 26.04837767 -9.20738834 26.04837767 -3.1875 20.0625 C0.036135 15.549411 -0.45219849 11.37628052 -1 6 C-1.30809248 4.32848335 -1.6338319 2.65976197 -2 1 C-1.34 0.67 -0.68 0.34 0 0 Z " fill="#EEEDED" transform="translate(198,86)"/>
<path d="M0 0 C-2.92831146 1.95220764 -5.31789503 2.8613512 -8.625 4 C-24.3886798 10.01023243 -37.75110237 19.25355942 -48.625 32.1875 C-49.800625 33.5796875 -49.800625 33.5796875 -51 35 C-51.66 35 -52.32 35 -53 35 C-53.25394531 35.53496094 -53.50789063 36.06992188 -53.76953125 36.62109375 C-54.67876327 38.37894233 -55.66847679 40.09568725 -56.69921875 41.78515625 C-69.95984971 63.64305286 -73.71891986 85.73129821 -73 111 C-74.99137119 107.66008621 -75.29587669 105.00136135 -75.4140625 101.140625 C-75.45273438 100.02558594 -75.49140625 98.91054687 -75.53125 97.76171875 C-75.5621875 96.60285156 -75.593125 95.44398438 -75.625 94.25 C-75.66367188 93.07566406 -75.70234375 91.90132813 -75.7421875 90.69140625 C-75.8363982 87.79442732 -75.92201602 84.89745374 -76 82 C-80.09624152 86.09624152 -78.1085975 99.02777222 -78.125 104.625 C-78.12959229 105.52645752 -78.13418457 106.42791504 -78.13891602 107.35668945 C-78.13690186 108.20062256 -78.1348877 109.04455566 -78.1328125 109.9140625 C-78.13168457 110.6767041 -78.13055664 111.4393457 -78.12939453 112.22509766 C-78.1925916 114.02534903 -78.1925916 114.02534903 -77 115 C-76.76472227 117.34987262 -76.58613583 119.70556039 -76.4375 122.0625 C-76.35371094 123.35285156 -76.26992187 124.64320313 -76.18359375 125.97265625 C-76.12300781 126.97167969 -76.06242187 127.97070312 -76 129 C-84.92546574 115.6118014 -81.97761515 91.54799441 -79.0390625 76.45703125 C-75.50903556 60.30522805 -67.80220197 45.44689814 -57 33 C-56.33484375 32.17886719 -55.6696875 31.35773438 -54.984375 30.51171875 C-48.90403388 23.27160886 -41.83909996 18.14987585 -34 13 C-32.69869141 12.13375 -32.69869141 12.13375 -31.37109375 11.25 C-22.0228132 5.336096 -11.23084554 -0.25524649 0 0 Z " fill="#DB0C0C" transform="translate(112,43)"/>
<path d="M0 0 C0.33 0 0.66 0 1 0 C1.66080579 22.43068545 -3.93435723 45.43823043 -17 64 C-17.66 64 -18.32 64 -19 64 C-19.226875 64.721875 -19.45375 65.44375 -19.6875 66.1875 C-21.27331875 69.58568303 -23.26123324 71.45230999 -26 74 C-27.66804465 75.66528755 -29.33456744 77.33210014 -31 79 C-46.32205206 94.27148423 -66.46455702 105.42842246 -88.546875 106.109375 C-89.35640625 106.07328125 -90.1659375 106.0371875 -91 106 C-88.80666821 103.80666821 -87.89952211 103.5508984 -84.96484375 102.8515625 C-84.15982422 102.65312744 -83.35480469 102.45469238 -82.52539062 102.25024414 C-81.67138672 102.04391357 -80.81738281 101.83758301 -79.9375 101.625 C-73.30024047 99.94412758 -67.06981993 98.23411255 -61 95 C-60.14664063 94.58234375 -59.29328125 94.1646875 -58.4140625 93.734375 C-50.56832849 89.73458903 -43.40978657 84.62415119 -37.3125 78.23046875 C-36 77 -36 77 -34 77 C-33.61521484 76.12601563 -33.61521484 76.12601563 -33.22265625 75.234375 C-31.88979732 72.79860725 -30.38817368 71.22037745 -28.4375 69.25 C-16.29544401 55.82750902 -10.41444403 38.45731046 -6.87402344 21.04052734 C-5.7085628 15.45778972 -4.11593661 10.35340155 -1.88696289 5.1003418 C-0.91512747 2.87496203 -0.91512747 2.87496203 0 0 Z " fill="#EDECED" transform="translate(253,143)"/>
<path d="M0 0 C-0.51949219 0.42410156 -1.03898437 0.84820312 -1.57421875 1.28515625 C-4.93671215 4.11313129 -7.97894848 6.686532 -10.3125 10.4375 C-15.29406952 17.85970425 -23.58259864 22.16391509 -31.76953125 25.14453125 C-36.05605362 26.78857398 -39.25555731 28.51111462 -41.375 32.75 C-41.58125 33.4925 -41.7875 34.235 -42 35 C-41.34 35 -40.68 35 -40 35 C-39.319375 35.7425 -38.63875 36.485 -37.9375 37.25 C-34.61627269 40.76129754 -30.43226653 42.27151262 -26 44 C-26.14050781 44.83917969 -26.28101562 45.67835938 -26.42578125 46.54296875 C-26.81000286 48.85613967 -27.18232159 51.17131781 -27.54296875 53.48828125 C-29.06929262 62.54446952 -31.46917355 70.85798238 -34.6953125 79.453125 C-35.63345463 82.00352337 -36.38207605 84.37400347 -37 87 C-38.9375 86.1875 -38.9375 86.1875 -41 85 C-42.95095301 79.14714096 -40.19732217 72.59925151 -38.5625 66.8125 C-36.63182622 59.956638 -35.330654 52.99301147 -34 46 C-34.90105469 45.73832031 -35.80210938 45.47664063 -36.73046875 45.20703125 C-39.90779048 44.03404151 -41.78953599 42.89693062 -44.3125 40.6875 C-45.32763672 39.82705078 -45.32763672 39.82705078 -46.36328125 38.94921875 C-48.29654877 36.64683093 -48.64957243 34.9507017 -49 32 C-44.22268819 27.44846979 -39.62280328 24.65159479 -33.5625 22.125 C-26.70325586 19.07710082 -21.76470149 15.92151604 -17 10 C-6.90763651 -2.11518634 -6.90763651 -2.11518634 0 0 Z " fill="#D00C0B" transform="translate(136,106)"/>
<path d="M0 0 C0.99 0.33 1.98 0.66 3 1 C2.97102517 10.92388058 1.53658753 17.75085616 -4 26 C-4.58652344 26.89976562 -5.17304688 27.79953125 -5.77734375 28.7265625 C-8.84435934 33.27675192 -12.00963867 37.21427259 -16 41 C-16.83644645 42.06005095 -17.66945202 43.12282129 -18.5 44.1875 C-27.6622941 54.93917165 -42.37143056 64.54972926 -56 68 C-55.3125 65.5625 -55.3125 65.5625 -54 63 C-52.34100045 62.63039296 -50.67260425 62.30213227 -49 62 C-40.96837591 58.35305804 -34.67056225 52.42294099 -28.41210938 46.36083984 C-27.11941604 45.11508039 -25.80299151 43.89406824 -24.484375 42.67578125 C-12.47250027 31.29718563 -5.11020095 15.5527855 0 0 Z " fill="#D71112" transform="translate(241,144)"/>
<path d="M0 0 C1.32 0 2.64 0 4 0 C4 3.13728511 3.65715318 5.27936205 1.50390625 7.640625 C0.14044972 8.81478878 -1.24604116 9.96247567 -2.6484375 11.08984375 C-5.0860469 13.06989524 -7.2993547 15.19889875 -9.5625 17.375 C-23.75988888 30.17233821 -44.5657206 39.86649653 -64 39 C-61.80666821 36.80666821 -60.89952211 36.5508984 -57.96484375 35.8515625 C-57.15982422 35.65312744 -56.35480469 35.45469238 -55.52539062 35.25024414 C-54.67138672 35.04391357 -53.81738281 34.83758301 -52.9375 34.625 C-46.30024047 32.94412758 -40.06981993 31.23411255 -34 28 C-33.14664063 27.58234375 -32.29328125 27.1646875 -31.4140625 26.734375 C-23.56832849 22.73458903 -16.40978657 17.62415119 -10.3125 11.23046875 C-9 10 -9 10 -7 10 C-6.773125 9.46375 -6.54625 8.9275 -6.3125 8.375 C-4.51522889 5.12279514 -2.5780219 2.70078485 0 0 Z " fill="#EAE9EA" transform="translate(226,210)"/>
<path d="M0 0 C2.31 0.66 4.62 1.32 7 2 C7.33 1.34 7.66 0.68 8 0 C11.30919152 1.28041156 14.45363465 2.72681732 17.625 4.3125 C38.25648331 13.7360694 59.82684994 14.54056626 82 13 C76.9196322 18.0803678 67.03777148 17.27597697 60.1875 17.375 C39.16473037 17.33287442 17.99098143 11.95778999 0 1 C0 0.67 0 0.34 0 0 Z " fill="#D20E0E" transform="translate(82,234)"/>
<path d="M0 0 C2.475 0.495 2.475 0.495 5 1 C3.60915878 5.94353347 1.36808629 9.91616844 -1.5 14.125 C-1.93779785 14.7744458 -2.3755957 15.4238916 -2.82666016 16.09301758 C-7.15223482 22.40391218 -11.89814509 28.29845337 -17 34 C-17.67804688 34.76441406 -18.35609375 35.52882812 -19.0546875 36.31640625 C-21 38 -21 38 -24.75 38.25 C-25.8225 38.1675 -26.895 38.085 -28 38 C-26.90171875 36.93458984 -26.90171875 36.93458984 -25.78125 35.84765625 C-15.48654959 25.30715541 -7.85590956 12.37333561 0 0 Z " fill="#D80D0D" transform="translate(165,67)"/>
<path d="M0 0 C0.33 0 0.66 0 1 0 C1.01981934 0.71430176 1.03963867 1.42860352 1.06005859 2.16455078 C0.45023268 22.56378006 0.45023268 22.56378006 5 42 C5.50852273 49.88210227 5.50852273 49.88210227 2 54 C-0.04278833 47.96156908 -1.37163063 42.30439926 -1.7890625 35.93359375 C-1.79633317 33.99491603 -1.79633317 33.99491603 -3 33 C-3.09908096 31.64090835 -3.1307971 30.27675949 -3.1328125 28.9140625 C-3.13490723 28.07020996 -3.13700195 27.22635742 -3.13916016 26.35693359 C-3.1344873 25.45539551 -3.12981445 24.55385742 -3.125 23.625 C-3.12161621 22.7170166 -3.11823242 21.8090332 -3.11474609 20.87353516 C-2.97725457 2.97725457 -2.97725457 2.97725457 0 0 Z " fill="#F80202" transform="translate(36,124)"/>
<path d="M0 0 C0.66 0 1.32 0 2 0 C2 2.31 2 4.62 2 7 C1.34 7 0.68 7 0 7 C0.01160156 7.85464844 0.02320312 8.70929688 0.03515625 9.58984375 C0.04417969 10.69457031 0.05320312 11.79929688 0.0625 12.9375 C0.07410156 14.03964844 0.08570312 15.14179688 0.09765625 16.27734375 C0 19 0 19 -1 20 C-1.32830787 21.45052387 -1.61180393 22.91126048 -1.875 24.375 C-2.94921803 30.00650662 -4.42854509 35.48943145 -6 41 C-7.9375 40.1875 -7.9375 40.1875 -10 39 C-12.22717837 32.31846488 -8.51139747 24.07372586 -6.6640625 17.49609375 C-5.91629291 14.68535984 -5.38945218 11.88194611 -5 9 C-4.01 9 -3.02 9 -2 9 C-2.04125 8.071875 -2.0825 7.14375 -2.125 6.1875 C-2 3 -2 3 0 0 Z " fill="#E10B0C" transform="translate(105,152)"/>
<path d="M0 0 C0.99 0.33 1.98 0.66 3 1 C3.13277344 1.63421875 3.26554688 2.2684375 3.40234375 2.921875 C3.80429441 5.19989987 3.80429441 5.19989987 6.06640625 6.265625 C6.89011719 6.59046875 7.71382812 6.9153125 8.5625 7.25 C9.38878906 7.58515625 10.21507812 7.9203125 11.06640625 8.265625 C11.70449219 8.50796875 12.34257812 8.7503125 13 9 C12.6171875 10.94921875 12.6171875 10.94921875 12 13 C11.38125 13.268125 10.7625 13.53625 10.125 13.8125 C6.78123528 15.6810744 6.30653783 18.47234787 5 22 C4.01 22 3.02 22 2 22 C1.443125 20.906875 0.88625 19.81375 0.3125 18.6875 C-1.58959869 15.31962633 -3.44629125 13.67814024 -7 12 C-6.67 11.01 -6.34 10.02 -6 9 C-4.68 8.67 -3.36 8.34 -2 8 C-1.34 5.36 -0.68 2.72 0 0 Z " fill="#241011" transform="translate(213,111)"/>
<path d="M0 0 C-0.51949219 0.42410156 -1.03898437 0.84820312 -1.57421875 1.28515625 C-4.93671215 4.11313129 -7.97894848 6.686532 -10.3125 10.4375 C-15.2602106 17.80925674 -23.59676249 22.26139802 -31.76171875 25.19140625 C-34.64940144 26.23460052 -37.2861691 27.57166795 -40 29 C-40 28.34 -40 27.68 -40 27 C-40.66 26.67 -41.32 26.34 -42 26 C-40.865625 25.5153125 -39.73125 25.030625 -38.5625 24.53125 C-30.01993829 20.77244706 -22.96481652 17.41300515 -17 10 C-6.90763651 -2.11518634 -6.90763651 -2.11518634 0 0 Z " fill="#DE0B0D" transform="translate(136,106)"/>
<path d="M0 0 C-2.92831146 1.95220764 -5.31789503 2.8613512 -8.625 4 C-22.13664527 9.14226678 -33.86308483 16.70982694 -44 27 C-44.33 26.01 -44.66 25.02 -45 24 C-47.64 26.31 -50.28 28.62 -53 31 C-53 28 -53 28 -51.33984375 26.08984375 C-37.8748882 14.02611934 -18.8819505 -0.42913524 0 0 Z " fill="#CE100F" transform="translate(112,43)"/>
<path d="M0 0 C3.295146 0.24408489 4.19946798 1.20433305 6.5625 3.625 C10.48290985 8.6828127 12.47218628 13.54678747 12 20 C11.01 20.33 10.02 20.66 9 21 C8.67 21.99 8.34 22.98 8 24 C7.34 24 6.68 24 6 24 C5.87044922 22.7315625 5.87044922 22.7315625 5.73828125 21.4375 C4.9213601 14.84217332 4.04202404 9.89647045 -0.07421875 4.5859375 C-0.37972656 4.06257813 -0.68523437 3.53921875 -1 3 C-0.67 2.01 -0.34 1.02 0 0 Z " fill="#F3F2F3" transform="translate(177,66)"/>
<path d="M0 0 C1.45903258 0.30921884 2.91720722 0.62248799 4.375 0.9375 C5.18710938 1.11152344 5.99921875 1.28554687 6.8359375 1.46484375 C9 2 9 2 11 3 C10.32829194 6.8063457 9.27253436 10.35206816 8 14 C4.83869257 13.29748724 1.90280067 12.45140033 -1 11 C-2.3125 8.875 -2.3125 8.875 -3 7 C-2.34 6.34 -1.68 5.68 -1 5 C-0.35232207 2.42938689 -0.35232207 2.42938689 0 0 Z " fill="#4E2829" transform="translate(229,125)"/>
<path d="M0 0 C9.83081167 1.80702514 19.05522519 1.88571 29 1.1875 C30.07701172 1.11595703 30.07701172 1.11595703 31.17578125 1.04296875 C32.90905255 0.92741733 34.64205895 0.80790285 36.375 0.6875 C30.80282725 6.25967275 19.34251408 4.99898955 11.88183594 5.00048828 C3.22342915 4.84801535 -5.1536285 3.38784697 -13.625 1.6875 C-9.69411668 -2.759449 -5.20179189 -0.99975529 0 0 Z " fill="#C41618" transform="translate(127.625,246.3125)"/>
<path d="M0 0 C0.99 0.33 1.98 0.66 3 1 C3 1.66 3 2.32 3 3 C4.98 3.66 6.96 4.32 9 5 C8.38545304 8.99455527 6.29353263 11.74466336 4 15 C2.0625 14.3125 2.0625 14.3125 0 13 C-0.75 10.375 -0.75 10.375 -1 8 C-1.99 8 -2.98 8 -4 8 C-3.67 6.68 -3.34 5.36 -3 4 C-2.34 4 -1.68 4 -1 4 C-0.67 2.68 -0.34 1.36 0 0 Z " fill="#943C3E" transform="translate(217,137)"/>
<path d="M0 0 C0.33 0 0.66 0 1 0 C1.01458252 1.0422876 1.02916504 2.0845752 1.04418945 3.15844727 C1.1030515 7.10065625 1.18026027 11.04234511 1.26245117 14.98413086 C1.29529407 16.67610099 1.32344596 18.36817004 1.34643555 20.06030273 C1.48524938 30.01650341 2.11405359 39.31503164 4.46557617 49.01147461 C4.9714138 51.84014448 4.9798549 53.34400245 4 56 C-1.89572317 37.16802989 -3.31966257 19.50301762 0 0 Z " fill="#350100" transform="translate(40,120)"/>
<path d="M0 0 C0.33 0.99 0.66 1.98 1 3 C1.66 3.33 2.32 3.66 3 4 C-5.81890042 11.46573581 -15.69782877 18.16726752 -27 21 C-26.3125 18.5625 -26.3125 18.5625 -25 16 C-23.34007117 15.63458905 -21.67190929 15.30595458 -20 15 C-12.26817765 11.36149536 -6.12207787 5.86156392 0 0 Z " fill="#D20D10" transform="translate(212,191)"/>
<path d="M0 0 C1 2 1 2 0.375 4.8125 C-1.21155652 8.49042648 -3.08053323 10.28421696 -6 13 C-6.88908764 14.05073994 -7.76420632 15.11345834 -8.625 16.1875 C-11 19 -11 19 -14 21 C-14.99 21 -15.98 21 -17 21 C-16.53917014 16.35055592 -14.86948806 14.45273492 -11.5 11.3125 C-8.32803323 8.4714243 -8.32803323 8.4714243 -6 5 C-5.01 4.67 -4.02 4.34 -3 4 C-1.31461399 2.00334686 -1.31461399 2.00334686 0 0 Z " fill="#DC0B0B" transform="translate(230,173)"/>
<path d="M0 0 C-0.66666667 2.66666667 -1.33333333 5.33333333 -2 8 C-1.34 8 -0.68 8 0 8 C3 13.75 3 13.75 3 16 C0.9375 16.4375 0.9375 16.4375 -2 16 C-4.78360848 14.00122231 -7.01457132 11.79473832 -9 9 C-9.24426896 5.49881156 -8.32988502 4.42088778 -6.1875 1.6875 C-4 0 -4 0 0 0 Z " fill="#E4080A" transform="translate(96,133)"/>
<path d="M0 0 C0 0.66 0 1.32 0 2 C-0.94359375 2.27972656 -1.8871875 2.55945312 -2.859375 2.84765625 C-10.7634011 5.28650649 -17.47214797 8.09479934 -24.4140625 12.7421875 C-27.46809167 14.22768205 -28.82224908 14.02101022 -32 13 C-23.38061548 5.73082872 -11.51633981 -0.36559809 0 0 Z " fill="#E8E8E7" transform="translate(141,39)"/>
<path d="M0 0 C2.125 0.9375 2.125 0.9375 4 2 C-1.37007288 7.37007288 -10.0657829 8.63034391 -17.25 10.25 C-18.40242187 10.51272705 -18.40242187 10.51272705 -19.578125 10.78076172 C-23.79425102 11.68931492 -27.65930297 12.19353426 -32 12 C-29.80666821 9.80666821 -28.89952211 9.5508984 -25.96484375 8.8515625 C-25.15909912 8.65272461 -24.35335449 8.45388672 -23.52319336 8.24902344 C-22.66991455 8.0430957 -21.81663574 7.83716797 -20.9375 7.625 C-14.27433211 5.9528221 -8.14892754 4.13036311 -2 1 C-1.34 0.67 -0.68 0.34 0 0 Z " fill="#DBDBDB" transform="translate(194,237)"/>
<path d="M0 0 C0 0.66 0 1.32 0 2 C-1.03640625 2.33773437 -2.0728125 2.67546875 -3.140625 3.0234375 C-4.5104696 3.47379737 -5.88025834 3.92432714 -7.25 4.375 C-7.93191406 4.59671875 -8.61382812 4.8184375 -9.31640625 5.046875 C-12.08103034 5.95946936 -14.72412519 6.8526791 -17.296875 8.2265625 C-19 9 -19 9 -22 8 C-21.67 7.34 -21.34 6.68 -21 6 C-23.97 5.505 -23.97 5.505 -27 5 C-27 4.67 -27 4.34 -27 4 C-23.43884042 3.32603699 -19.87587859 2.66212182 -16.3125 2 C-15.30509766 1.80921875 -14.29769531 1.6184375 -13.25976562 1.421875 C-12.28330078 1.24140625 -11.30683594 1.0609375 -10.30078125 0.875 C-9.40528564 0.70742188 -8.50979004 0.53984375 -7.5871582 0.3671875 C-5.01987068 0.00282018 -2.58907987 -0.06528807 0 0 Z " fill="#1F1D1D" transform="translate(136,38)"/>
<path d="M0 0 C0.66 0 1.32 0 2 0 C2 2.31 2 4.62 2 7 C1.34 7 0.68 7 0 7 C0.02320312 7.79664063 0.04640625 8.59328125 0.0703125 9.4140625 C0.24956063 19.93848858 0.24956063 19.93848858 -2 25 C-2.99 25 -3.98 25 -5 25 C-5.33 24.34 -5.66 23.68 -6 23 C-5.67 22.34 -5.34 21.68 -5 21 C-4.77141886 18.9625237 -4.58975722 16.91959697 -4.4375 14.875 C-4.35371094 13.77929688 -4.26992187 12.68359375 -4.18359375 11.5546875 C-4.12300781 10.71164063 -4.06242187 9.86859375 -4 9 C-3.34 9 -2.68 9 -2 9 C-2.04125 8.071875 -2.0825 7.14375 -2.125 6.1875 C-2 3 -2 3 0 0 Z " fill="#F70203" transform="translate(105,152)"/>
<path d="M0 0 C1.33895632 1.66215268 2.67130142 3.32963607 4 5 C4.5775 5.721875 5.155 6.44375 5.75 7.1875 C7 9 7 9 7 11 C7.66 11 8.32 11 9 11 C9 12.98 9 14.96 9 17 C8.01 17 7.02 17 6 17 C3.95703125 14.734375 3.95703125 14.734375 1.8125 11.75 C1.09707031 10.77546875 0.38164063 9.8009375 -0.35546875 8.796875 C-2 6 -2 6 -2 2 C-1.34 2 -0.68 2 0 2 C0 1.34 0 0.68 0 0 Z " fill="#EEEBEC" transform="translate(86,171)"/>
<path d="M0 0 C0.99 0 1.98 0 3 0 C1.87385811 3.00304503 0.5767022 5.80545108 -0.9375 8.625 C-3.43948551 13.51652224 -4.70978753 18.68276073 -6 24 C-6.33 24 -6.66 24 -7 24 C-6.67 20.04 -6.34 16.08 -6 12 C-6.66 12 -7.32 12 -8 12 C-7.58388059 7.1452735 -5.54108048 5.19560921 -2 2 C-1.34 1.34 -0.68 0.68 0 0 Z " fill="#F3F2F2" transform="translate(196,107)"/>
<path d="M0 0 C0.99 0.33 1.98 0.66 3 1 C3.5625 2.9375 3.5625 2.9375 4 5 C4.66 5.66 5.32 6.32 6 7 C5 9 5 9 2 11 C0.80767387 13.05003955 0.80767387 13.05003955 0 15 C-0.33 14.34 -0.66 13.68 -1 13 C-2.65 13 -4.3 13 -6 13 C-6 11.68 -6 10.36 -6 9 C-4.68 8.67 -3.36 8.34 -2 8 C-1.34 5.36 -0.68 2.72 0 0 Z " fill="#2B0203" transform="translate(213,111)"/>
<path d="M0 0 C0.33 0 0.66 0 1 0 C1.02505615 0.96413818 1.0501123 1.92827637 1.07592773 2.92163086 C1.16985306 6.48687842 1.27010939 10.05192433 1.37231445 13.61694336 C1.41571985 15.16214289 1.45739071 16.70739214 1.49731445 18.25268555 C1.55488199 20.46939096 1.61861424 22.6858448 1.68359375 24.90234375 C1.70866249 25.94454323 1.70866249 25.94454323 1.73423767 27.00779724 C1.56502856 30.28762029 1.56502856 30.28762029 3 33 C3.23527773 35.34987262 3.41386417 37.70556039 3.5625 40.0625 C3.64628906 41.35285156 3.73007812 42.64320313 3.81640625 43.97265625 C3.87699219 44.97167969 3.93757813 45.97070312 4 47 C-3.79853435 35.30219847 -2.223057 13.33834201 0 0 Z " fill="#C51316" transform="translate(32,125)"/>
<path d="M0 0 C0.66 0 1.32 0 2 0 C1.41734728 4.42323682 -0.26766211 7.5155864 -2.5625 11.3125 C-3.20316406 12.38113281 -3.84382813 13.44976562 -4.50390625 14.55078125 C-5.24447266 15.76314453 -5.24447266 15.76314453 -6 17 C-7.32 16.67 -8.64 16.34 -10 16 C-9.50899352 11.28806058 -7.56486733 8.77592943 -4.5625 5.1875 C-3.75941406 4.21167969 -2.95632812 3.23585938 -2.12890625 2.23046875 C-1.42636719 1.49441406 -0.72382812 0.75835937 0 0 Z " fill="#E90706" transform="translate(56,77)"/>
<path d="M0 0 C2.475 0.99 2.475 0.99 5 2 C4.40895235 6.84659077 3.02055843 10.60748167 1 15 C0.34 13.68 -0.32 12.36 -1 11 C-2.485 13.475 -2.485 13.475 -4 16 C-4.33 14.68 -4.66 13.36 -5 12 C-4.34 11.67 -3.68 11.34 -3 11 C-2.34767859 8.6833206 -2.34767859 8.6833206 -1.9375 6 C-1.09433962 1.09433962 -1.09433962 1.09433962 0 0 Z " fill="#331D1F" transform="translate(248,141)"/>
<path d="M0 0 C1 2 1 2 1 5 C1.66 5.33 2.32 5.66 3 6 C0.66666667 13 -1.66666667 20 -4 27 C-4.33 27 -4.66 27 -5 27 C-5.29804685 22.09712935 -4.34842506 18.6536414 -2.5 14.125 C-2.0359375 12.97257812 -1.571875 11.82015625 -1.09375 10.6328125 C-0.55234375 9.32957031 -0.55234375 9.32957031 0 8 C-0.99 8 -1.98 8 -3 8 C-3.103125 8.598125 -3.20625 9.19625 -3.3125 9.8125 C-4.08876455 12.28243264 -5.07088921 13.32251235 -7 15 C-5.45454854 9.52067211 -2.84456788 4.88570819 0 0 Z " fill="#CA100F" transform="translate(46,88)"/>
<path d="M0 0 C0.66 0.33 1.32 0.66 2 1 C0.1875 3.5 0.1875 3.5 -2 6 C-2.99 6 -3.98 6 -5 6 C-5.2475 6.804375 -5.495 7.60875 -5.75 8.4375 C-6.1625 9.283125 -6.575 10.12875 -7 11 C-8.32303717 11.3721042 -9.65737935 11.70630173 -11 12 C-11.6837045 13.32467746 -12.34964186 14.65863633 -13 16 C-13.99 16.4640625 -13.99 16.4640625 -15 16.9375 C-17.74986668 18.39836667 -18.08833304 20.11305462 -19 23 C-19.99 22.67 -20.98 22.34 -22 22 C-21.01 20.515 -21.01 20.515 -20 19 C-19.34 19 -18.68 19 -18 19 C-17.79117188 18.46503906 -17.58234375 17.93007812 -17.3671875 17.37890625 C-15.46325321 14.06606059 -12.83550189 11.58625185 -10.125 8.9375 C-9.59519531 8.40833984 -9.06539062 7.87917969 -8.51953125 7.33398438 C-5.8159155 4.66055788 -3.12775517 2.18338465 0 0 Z " fill="#2B0000" transform="translate(79,59)"/>
<path d="M0 0 C-3.99955266 2.66636844 -8.27507044 4.03419249 -12.7734375 5.68359375 C-15.73699626 6.89269702 -18.27206302 8.34685091 -21 10 C-21.66 10 -22.32 10 -23 10 C-23.33 9.01 -23.66 8.02 -24 7 C-21.75157909 6.01706733 -19.50140453 5.03855534 -17.25 4.0625 C-16.61578125 3.78470703 -15.9815625 3.50691406 -15.328125 3.22070312 C-9.86138844 0.85747847 -5.94573166 -0.13513026 0 0 Z " fill="#B6191A" transform="translate(112,43)"/>
<path d="M0 0 C1.125 1.6875 1.125 1.6875 2 4 C1.00449408 7.80102261 0.34152484 8.77231678 -3 11 C-5.33199388 11.07905064 -7.66832622 11.08798769 -10 11 C-9.278125 10.29875 -8.55625 9.5975 -7.8125 8.875 C-5.00176187 6.07229255 -2.50483774 3.07737208 0 0 Z " fill="#D00F10" transform="translate(147,94)"/>
<path d="M0 0 C0.33 0.66 0.66 1.32 1 2 C1.66 2.33 2.32 2.66 3 3 C2.20335938 3.32613281 1.40671875 3.65226562 0.5859375 3.98828125 C-4.70056742 6.16848218 -9.94083489 8.32988508 -15 11 C-15 10.34 -15 9.68 -15 9 C-15.66 8.67 -16.32 8.34 -17 8 C-11.39 5.36 -5.78 2.72 0 0 Z " fill="#AD1B1C" transform="translate(111,124)"/>
<path d="M0 0 C0.99 0.33 1.98 0.66 3 1 C2.88566637 3.25056722 2.75813564 5.50046674 2.625 7.75 C2.55539063 9.00296875 2.48578125 10.2559375 2.4140625 11.546875 C2.04676696 14.60998121 1.60288714 16.41974266 0 19 C-0.33 19 -0.66 19 -1 19 C-1.21278058 14.53160785 -0.59138085 11.17737474 1 7 C0.01 7.33 -0.98 7.66 -2 8 C-1.34 5.36 -0.68 2.72 0 0 Z " fill="#B3282A" transform="translate(241,144)"/>
<path d="M0 0 C0.99 0 1.98 0 3 0 C2.52792904 1.68596772 2.05261357 3.37111386 1.55859375 5.05078125 C1.05928531 6.79312329 0.6192705 8.55220487 0.1875 10.3125 C-1 13 -1 13 -3.625 14.375 C-4.40875 14.58125 -5.1925 14.7875 -6 15 C-4.36041242 9.76727367 -2.61047965 4.84803364 0 0 Z " fill="#F50203" transform="translate(43,96)"/>
<path d="M0 0 C0.66 0.33 1.32 0.66 2 1 C2 1.99 2 2.98 2 4 C2.639375 3.34 3.27875 2.68 3.9375 2 C8.04464253 -0.68221553 11.23379829 -0.37381974 16 0 C15.01 1.485 15.01 1.485 14 3 C14 2.34 14 1.68 14 1 C13.01 1 12.02 1 11 1 C11 1.66 11 2.32 11 3 C9.02 3.33 7.04 3.66 5 4 C5 4.99 5 5.98 5 7 C3.35 6.67 1.7 6.34 0 6 C-0.38218767 4.34385343 -0.71395102 2.67542976 -1 1 C-0.67 0.67 -0.34 0.34 0 0 Z " fill="#493032" transform="translate(181,86)"/>
<path d="M0 0 C-7.63805549 2.79441054 -14.90414661 3.14191718 -22.9375 3.0625 C-23.81212891 3.05798828 -24.68675781 3.05347656 -25.58789062 3.04882812 C-27.72529047 3.03714834 -29.86265463 3.01921689 -32 3 C-32 2.67 -32 2.34 -32 2 C-30.92878906 1.93941406 -29.85757813 1.87882813 -28.75390625 1.81640625 C-27.35675609 1.73201463 -25.95962143 1.64736594 -24.5625 1.5625 C-23.50192383 1.50352539 -23.50192383 1.50352539 -22.41992188 1.44335938 C-18.91309581 1.52375562 -18.91309581 1.52375562 -16 0 C-13.88103187 -0.262682 -11.75384336 -0.46051983 -9.625 -0.625 C-8.46226562 -0.72039062 -7.29953125 -0.81578125 -6.1015625 -0.9140625 C-3 -1 -3 -1 0 0 Z " fill="#822C2B" transform="translate(164,248)"/>
<path d="M0 0 C0.66 0 1.32 0 2 0 C2 0.66 2 1.32 2 2 C3.65 2.33 5.3 2.66 7 3 C5.97407374 6.07777878 5.24530756 6.84450474 3 9 C2.01 10.485 2.01 10.485 1 12 C-2.2 5.72307692 -2.2 5.72307692 -1.1875 2.0625 C-0.795625 1.381875 -0.40375 0.70125 0 0 Z " fill="#3E1110" transform="translate(218,138)"/>
<path d="M0 0 C1 3 1 3 0 6 C-1.26457031 6.16435547 -1.26457031 6.16435547 -2.5546875 6.33203125 C-3.65039062 6.49058594 -4.74609375 6.64914063 -5.875 6.8125 C-7.51082031 7.03873047 -7.51082031 7.03873047 -9.1796875 7.26953125 C-12.31238846 7.74665741 -12.31238846 7.74665741 -14 11 C-16.625 11.6875 -16.625 11.6875 -19 12 C-11.77777778 4.77777778 -11.77777778 4.77777778 -5.97265625 4.24609375 C-3.7913298 4.03952945 -3.7913298 4.03952945 -1 3 C-0.67 2.01 -0.34 1.02 0 0 Z " fill="#270000" transform="translate(148,100)"/>
<path d="M0 0 C0.66 0.33 1.32 0.66 2 1 C2 1.33 2 1.66 2 2 C2.66 2.33 3.32 2.66 4 3 C2.59447701 4.03612271 1.17508306 5.05344925 -0.25 6.0625 C-1.43335938 6.91521484 -1.43335938 6.91521484 -2.640625 7.78515625 C-5 9 -5 9 -7.296875 8.68359375 C-7.85890625 8.45800781 -8.4209375 8.23242188 -9 8 C-9 7.34 -9 6.68 -9 6 C-7.03125 4.4921875 -7.03125 4.4921875 -4.5 2.875 C-3.6646875 2.33617187 -2.829375 1.79734375 -1.96875 1.2421875 C-1.3190625 0.83226562 -0.669375 0.42234375 0 0 Z " fill="#E1E1E1" transform="translate(205,230)"/>
<path d="M0 0 C-0.66666667 2.66666667 -1.33333333 5.33333333 -2 8 C-1.34 8 -0.68 8 0 8 C0 8.66 0 9.32 0 10 C-0.99 9.67 -1.98 9.34 -3 9 C-3 7.35 -3 5.7 -3 4 C-3.99 4.33 -4.98 4.66 -6 5 C-6.33 6.65 -6.66 8.3 -7 10 C-7.66 9.67 -8.32 9.34 -9 9 C-8.6507442 5.85669777 -8.16074267 4.20508548 -6.1875 1.6875 C-4 0 -4 0 0 0 Z " fill="#D01114" transform="translate(96,133)"/>
<path d="M0 0 C-0.33 0.99 -0.66 1.98 -1 3 C-1.61875 3.2475 -2.2375 3.495 -2.875 3.75 C-6.18768563 5.69863861 -6.68618632 8.45270306 -8 12 C-8.66 12 -9.32 12 -10 12 C-8.68632435 3.75495679 -8.68632435 3.75495679 -6.125 0.9375 C-4 0 -4 0 0 0 Z " fill="#ABA4A3" transform="translate(226,121)"/>
<path d="M0 0 C-1 2 -1 2 -3.51171875 2.8515625 C-4.55972656 3.10679687 -5.60773438 3.36203125 -6.6875 3.625 C-7.72261719 3.88539063 -8.75773438 4.14578125 -9.82421875 4.4140625 C-12.96214097 4.99301494 -15.81757007 5.1049677 -19 5 C-16.2597483 2.2597483 -13.14604768 1.75638337 -9.5 0.8125 C-8.81035156 0.62236328 -8.12070313 0.43222656 -7.41015625 0.23632812 C-2.25214246 -1.12607123 -2.25214246 -1.12607123 0 0 Z " fill="#C1C0C1" transform="translate(181,244)"/>
<path d="M0 0 C1.31611677 0.95336021 2.62778961 1.91285774 3.9375 2.875 C4.66839844 3.40867188 5.39929688 3.94234375 6.15234375 4.4921875 C8 6 8 6 9 8 C8.01 8 7.02 8 6 8 C6.33 9.32 6.66 10.64 7 12 C4.11562221 10.70700306 2.12780579 9.34058637 0 7 C0.66 7 1.32 7 2 7 C1.34 4.69 0.68 2.38 0 0 Z " fill="#D80D0E" transform="translate(72,220)"/>
<path d="M0 0 C0.66 0 1.32 0 2 0 C1.95875 1.051875 1.9175 2.10375 1.875 3.1875 C1.99147875 6.74010173 2.47208068 8.84866641 4 12 C1.625 11.75 1.625 11.75 -1 11 C-2.3125 8.9375 -2.3125 8.9375 -3 7 C-2.34 6.34 -1.68 5.68 -1 5 C-0.35232207 2.42938689 -0.35232207 2.42938689 0 0 Z " fill="#924E51" transform="translate(229,125)"/>
<path d="M0 0 C1.485 0.99 1.485 0.99 3 2 C3 2.66 3 3.32 3 4 C3.66 4 4.32 4 5 4 C5 5.98 5 7.96 5 10 C4.01 10 3.02 10 2 10 C-1 6.66666667 -1 6.66666667 -1 4 C-0.34 4 0.32 4 1 4 C0.67 2.68 0.34 1.36 0 0 Z " fill="#E8CCCA" transform="translate(90,178)"/>
<path d="M0 0 C-0.33 0.99 -0.66 1.98 -1 3 C-1.99 3 -2.98 3 -4 3 C-4.20625 3.886875 -4.4125 4.77375 -4.625 5.6875 C-6.38304358 9.92278682 -8.35373333 11.30493333 -12 14 C-10.39654329 9.33539866 -8.05550658 4.88058403 -5 1 C-2 0 -2 0 0 0 Z " fill="#351112" transform="translate(177,65)"/>
<path d="M0 0 C0 0.99 0 1.98 0 3 C-1.78710586 3.86366822 -3.5798465 4.71568594 -5.375 5.5625 C-6.37273437 6.03816406 -7.37046875 6.51382813 -8.3984375 7.00390625 C-9.25695312 7.33261719 -10.11546875 7.66132813 -11 8 C-11.66 7.67 -12.32 7.34 -13 7 C-10.52525253 3.16414141 -10.52525253 3.16414141 -8 2.375 C-7.01 2.189375 -7.01 2.189375 -6 2 C-3 0 -3 0 0 0 Z " fill="#BE2627" transform="translate(198,204)"/>
<path d="M0 0 C-2.98999625 2.46234985 -5.79139023 3.8405175 -9.4375 5.125 C-10.36433594 5.45757812 -11.29117188 5.79015625 -12.24609375 6.1328125 C-14.82218774 6.94400805 -17.34320946 7.52746738 -20 8 C-18.24270517 4.48541034 -14.07362877 3.7357764 -10.5625 2.3125 C-9.77294922 1.97927734 -8.98339844 1.64605469 -8.16992188 1.30273438 C-7.03586914 0.83770508 -7.03586914 0.83770508 -5.87890625 0.36328125 C-5.1835376 0.07751221 -4.48816895 -0.20825684 -3.77172852 -0.50268555 C-2 -1 -2 -1 0 0 Z " fill="#2E0101" transform="translate(111,45)"/>
<path d="M0 0 C-0.75 4.75 -0.75 4.75 -3 7 C-4.98821313 7.39764263 -6.98944339 7.73775349 -9 8 C-3.95652174 0 -3.95652174 0 0 0 Z " fill="#EFEDEE" transform="translate(214,225)"/>
<path d="M0 0 C0.66 0 1.32 0 2 0 C2.33663062 3.70293685 2.47736015 5.39534381 0.125 8.375 C-2 10 -2 10 -4 10 C-4 8.35 -4 6.7 -4 5 C-3.34 5 -2.68 5 -2 5 C-1.34 3.35 -0.68 1.7 0 0 Z " fill="#EF0505" transform="translate(237,161)"/>
<path d="M0 0 C2.4266535 2.16303376 3.54328175 3.92487293 4.5625 7 C5.49299795 9.77572269 6.33041269 11.49561903 8 14 C7.625 16.1875 7.625 16.1875 7 18 C5.82333996 15.75474054 4.6585926 13.50455858 3.5 11.25 C3.16613281 10.61578125 2.83226562 9.9815625 2.48828125 9.328125 C0.72824467 5.87989007 0 3.95159931 0 0 Z " fill="#320000" transform="translate(45,176)"/>
<path d="M0 0 C0.33 2.97 0.66 5.94 1 9 C-0.65 8.67 -2.3 8.34 -4 8 C-4.1875 5.125 -4.1875 5.125 -4 2 C-1 0 -1 0 0 0 Z " fill="#F4F5F4" transform="translate(252,154)"/>
<path d="M0 0 C0.66 0.33 1.32 0.66 2 1 C1.67 2.98 1.34 4.96 1 7 C0.01 7 -0.98 7 -2 7 C-2.66 8.98 -3.32 10.96 -4 13 C-5.08557659 9.75784173 -4.94015194 7.97678191 -3.6875 4.8125 C-3.42324219 4.11769531 -3.15898437 3.42289062 -2.88671875 2.70703125 C-2 1 -2 1 0 0 Z " fill="#E0DFDF" transform="translate(189,118)"/>
<path d="M0 0 C0.66 1.98 1.32 3.96 2 6 C1.34 6 0.68 6 0 6 C0 6.66 0 7.32 0 8 C0.66 8 1.32 8 2 8 C2 8.99 2 9.98 2 11 C1.34 11 0.68 11 0 11 C-2.04169485 8.09451118 -3 6.59857954 -3 3 C-3.66 2.67 -4.32 2.34 -5 2 C-2 0 -2 0 0 0 Z " fill="#F00506" transform="translate(57,201)"/>
<path d="M0 0 C0 0.66 0 1.32 0 2 C-5.31329355 4.08989546 -9.28728072 5.6112798 -15 4 C-10.13371581 1.37969313 -5.5814298 -0.3283194 0 0 Z " fill="#D0CFD0" transform="translate(141,39)"/>
<path d="M0 0 C0.33 0 0.66 0 1 0 C1.44701413 7.56198897 1.53574091 12.76335625 -3 19 C-4.41598706 16.16802588 -3.51740683 14.74652203 -2.625 11.75 C-1.50028154 7.84173175 -0.54582198 4.03908265 0 0 Z " fill="#CE191B" transform="translate(100,161)"/>
<path d="M0 0 C0.66 0.66 1.32 1.32 2 2 C1.60348083 3.31872662 1.18201309 4.62997101 0.75 5.9375 C0.40195313 7.03384766 0.40195313 7.03384766 0.046875 8.15234375 C-1 10 -1 10 -3.046875 10.62890625 C-4.01367188 10.81259766 -4.01367188 10.81259766 -5 11 C-5.33 11.66 -5.66 12.32 -6 13 C-6 11.68 -6 10.36 -6 9 C-4.68 8.67 -3.36 8.34 -2 8 C-1.34 5.36 -0.68 2.72 0 0 Z " fill="#922F30" transform="translate(213,111)"/>
<path d="M0 0 C3 1 3 1 3 1 Z M0 1 C0 1.99 0 2.98 0 4 C-0.99 4.33 -1.98 4.66 -3 5 C-3.33 5.66 -3.66 6.32 -4 7 C-4.66 6.67 -5.32 6.34 -6 6 C-5.67 5.34 -5.34 4.68 -5 4 C-7.97 3.505 -7.97 3.505 -11 3 C-11 2.67 -11 2.34 -11 2 C-7.27569643 1.30710631 -3.78916254 0.88855404 0 1 Z " fill="#1E0A0A" transform="translate(120,40)"/>
<path d="M0 0 C0.33 0.99 0.66 1.98 1 3 C0.00390625 4.82421875 0.00390625 4.82421875 -1.4375 6.6875 C-1.91058594 7.31011719 -2.38367188 7.93273437 -2.87109375 8.57421875 C-3.24363281 9.04472656 -3.61617187 9.51523438 -4 10 C-4.99 9.67 -5.98 9.34 -7 9 C-6.34 8.67 -5.68 8.34 -5 8 C-4.87625 7.21625 -4.7525 6.4325 -4.625 5.625 C-4 3 -4 3 -1.9375 1.1875 C-1.298125 0.795625 -0.65875 0.40375 0 0 Z " fill="#968B8C" transform="translate(225,142)"/>
<path d="M0 0 C1.32 0.33 2.64 0.66 4 1 C3.40075776 5.19469571 2.42500059 9.00999834 1 13 C0.67 13 0.34 13 0 13 C0 8.71 0 4.42 0 0 Z " fill="#7F7B7C" transform="translate(249,142)"/>
<path d="M0 0 C3 1 3 1 5 4 C4.625 6.1875 4.625 6.1875 4 8 C1 7 1 7 -1 4 C-0.625 1.8125 -0.625 1.8125 0 0 Z " fill="#F60403" transform="translate(62,212)"/>
<path d="M0 0 C1.32 0.33 2.64 0.66 4 1 C4 1.66 4 2.32 4 3 C4.66 3 5.32 3 6 3 C5.67 4.32 5.34 5.64 5 7 C4.01 7 3.02 7 2 7 C0 4 0 4 0 0 Z " fill="#F40303" transform="translate(45,190)"/>
<path d="M0 0 C0 3.51716303 -0.82445585 4.37121748 -3 7 C-2.34 7.33 -1.68 7.66 -1 8 C-4 10 -4 10 -7 10 C-6.42424336 6.64749299 -5.40693737 5.06181371 -2.9375 2.75 C-2.38964844 2.22921875 -1.84179688 1.7084375 -1.27734375 1.171875 C-0.64505859 0.59179688 -0.64505859 0.59179688 0 0 Z " fill="#CD1110" transform="translate(119,116)"/>
<path d="M0 0 C0.99 0.99 1.98 1.98 3 3 C3.99 2.34 4.98 1.68 6 1 C5.67 2.65 5.34 4.3 5 6 C4.34 6 3.68 6 3 6 C2.67 6.99 2.34 7.98 2 9 C1.34 9 0.68 9 0 9 C0 6.03 0 3.06 0 0 Z " fill="#E4DADA" transform="translate(183,81)"/>
<path d="M0 0 C1.04449911 3.13349732 0.93423645 3.98968256 0 7 C-0.33 6.01 -0.66 5.02 -1 4 C-3.64 6.31 -6.28 8.62 -9 11 C-9 8 -9 8 -7.03125 5.95703125 C-6.1959375 5.24933594 -5.360625 4.54164062 -4.5 3.8125 C-3.6646875 3.09707031 -2.829375 2.38164063 -1.96875 1.64453125 C-1.3190625 1.10183594 -0.669375 0.55914062 0 0 Z " fill="#C51017" transform="translate(68,63)"/>
<path d="M0 0 C-2.6860286 1.79068573 -4.6626589 2.66055791 -7.6875 3.625 C-8.89986328 4.01558594 -8.89986328 4.01558594 -10.13671875 4.4140625 C-10.75160156 4.60742188 -11.36648437 4.80078125 -12 5 C-12.66 4.34 -13.32 3.68 -14 3 C-9.07015675 0.96006486 -5.42039575 -0.40652968 0 0 Z " fill="#8B2725" transform="translate(112,43)"/>
<path d="M0 0 C1.1700097 3.91736581 0.69584017 6.97959015 0 11 C-0.66 11 -1.32 11 -2 11 C-2.33 12.65 -2.66 14.3 -3 16 C-4.49828872 12.11764181 -3.43110582 9.56550712 -2.0625 5.75 C-1.68222656 4.67234375 -1.30195312 3.5946875 -0.91015625 2.484375 C-0.45962891 1.25460938 -0.45962891 1.25460938 0 0 Z " fill="#420000" transform="translate(103,177)"/>
<path d="M0 0 C1 4 1 4 -0.25 6.5625 C-1.71962175 8.60947315 -3.13797675 10.3153123 -5 12 C-5.66 11.67 -6.32 11.34 -7 11 C-4.69 7.37 -2.38 3.74 0 0 Z " fill="#370000" transform="translate(238,167)"/>
<path d="M0 0 C0.99 0.33 1.98 0.66 3 1 C2.01 3.64 1.02 6.28 0 9 C-0.99 8.67 -1.98 8.34 -3 8 C-1.125 1.125 -1.125 1.125 0 0 Z " fill="#A99F9F" transform="translate(237,130)"/>
<path d="M0 0 C1.98 0.99 1.98 0.99 4 2 C4 5.78706732 3.5745952 9.26513121 3 13 C2.67 13 2.34 13 2 13 C1.34 8.71 0.68 4.42 0 0 Z " fill="#D6D5D5" transform="translate(196,87)"/>
<path d="M0 0 C0.66 0.33 1.32 0.66 2 1 C1.01 2.485 1.01 2.485 0 4 C0.99 4 1.98 4 3 4 C1.71034824 5.37562854 0.37310707 6.70766393 -1 8 C-1.66 8 -2.32 8 -3 8 C-3.75 6.25 -3.75 6.25 -4 4 C-2.0625 1.75 -2.0625 1.75 0 0 Z " fill="#DBDADA" transform="translate(217,220)"/>
<path d="M0 0 C3.465 1.485 3.465 1.485 7 3 C5.68 3.33 4.36 3.66 3 4 C3.33 4.99 3.66 5.98 4 7 C2.02 6.34 0.04 5.68 -2 5 C-1.01 4.67 -0.02 4.34 1 4 C0.67 2.68 0.34 1.36 0 0 Z " fill="#CE0B0D" transform="translate(98,145)"/>
<path d="M0 0 C0.99 0 1.98 0 3 0 C2.67 2.31 2.34 4.62 2 7 C1.01 6.67 0.02 6.34 -1 6 C-1.042721 4.33388095 -1.04063832 2.66617115 -1 1 C-0.67 0.67 -0.34 0.34 0 0 Z " fill="#F40404" transform="translate(90,137)"/>
<path d="M0 0 C2.475 0.495 2.475 0.495 5 1 C3.515 4.465 3.515 4.465 2 8 C0 6 0 6 -0.125 2.875 C-0.08375 1.92625 -0.0425 0.9775 0 0 Z " fill="#180807" transform="translate(218,142)"/>
<path d="M0 0 C2.97 0.495 2.97 0.495 6 1 C5.01 2.485 5.01 2.485 4 4 C3.61500109 5.65549531 3.27206865 7.3222433 3 9 C0.23776722 6.23776722 0.42143709 3.79293383 0 0 Z " fill="#150101" transform="translate(232,128)"/>
<path d="M0 0 C2.31 0.33 4.62 0.66 7 1 C7.33 1.99 7.66 2.98 8 4 C5.69 3.67 3.38 3.34 1 3 C0.67 2.01 0.34 1.02 0 0 Z " fill="#E70709" transform="translate(92,237)"/>
<path d="M0 0 C0.33 1.32 0.66 2.64 1 4 C-1.4375 6.75 -1.4375 6.75 -4 9 C-4.33 8.34 -4.66 7.68 -5 7 C-3.35 4.69 -1.7 2.38 0 0 Z " fill="#320000" transform="translate(164,79)"/>
<path d="M0 0 C0 0.66 0 1.32 0 2 C-0.99 2 -1.98 2 -3 2 C-3 2.66 -3 3.32 -3 4 C-6 6 -6 6 -8.1875 5.625 C-8.785625 5.41875 -9.38375 5.2125 -10 5 C-8.71186658 4.16121545 -7.41936744 3.32913217 -6.125 2.5 C-5.40570313 2.0359375 -4.68640625 1.571875 -3.9453125 1.09375 C-2 0 -2 0 0 0 Z " fill="#330000" transform="translate(91,53)"/>
<path d="M0 0 C0 0.66 0 1.32 0 2 C-3.3 2.33 -6.6 2.66 -10 3 C-6.88378718 -0.11621282 -4.21175599 -0.11383124 0 0 Z " fill="#B0AAA9" transform="translate(172,246)"/>
<path d="M0 0 C0.66 0.99 1.32 1.98 2 3 C-1.75 6 -1.75 6 -4 6 C-4.33 5.01 -4.66 4.02 -5 3 C-3.35 2.01 -1.7 1.02 0 0 Z " fill="#BF1411" transform="translate(202,200)"/>
<path d="M0 0 C1 2 1 2 0.0625 5.125 C-0.288125 6.07375 -0.63875 7.0225 -1 8 C-1.33 7.34 -1.66 6.68 -2 6 C-4.02463255 5.34786708 -4.02463255 5.34786708 -6 5 C-5.01 4.67 -4.02 4.34 -3 4 C-1.31461399 2.00334686 -1.31461399 2.00334686 0 0 Z " fill="#EB0609" transform="translate(230,173)"/>
<path d="M0 0 C0.33 0 0.66 0 1 0 C1.33 2.97 1.66 5.94 2 9 C1.34 8.67 0.68 8.34 0 8 C0 7.34 0 6.68 0 6 C-0.66 6 -1.32 6 -2 6 C-1.125 1.125 -1.125 1.125 0 0 Z " fill="#4A0000" transform="translate(96,135)"/>
<path d="M0 0 C-1.65 1.32 -3.3 2.64 -5 4 C-5 3.34 -5 2.68 -5 2 C-5.99 1.67 -6.98 1.34 -8 1 C-4.93251126 -0.86240388 -3.40254489 -1.2151946 0 0 Z " fill="#AD1519" transform="translate(136,106)"/>
<path d="M0 0 C2 0.3125 2 0.3125 4 1 C4.33 1.66 4.66 2.32 5 3 C3.68 3.99 2.36 4.98 1 6 C0.34 4.35 -0.32 2.7 -1 1 C-0.67 0.67 -0.34 0.34 0 0 Z " fill="#E3E2E3" transform="translate(177,66)"/>
<path d="M0 0 C1.8125 0.125 1.8125 0.125 4 1 C5.8125 3.9375 5.8125 3.9375 7 7 C6.67 7.66 6.34 8.32 6 9 C4.99712471 7.68969568 3.99777175 6.37669473 3 5.0625 C2.443125 4.33160156 1.88625 3.60070312 1.3125 2.84765625 C0 1 0 1 0 0 Z " fill="#C61412" transform="translate(50,203)"/>
<path d="M0 0 C0.33 1.32 0.66 2.64 1 4 C-0.8125 5.5625 -0.8125 5.5625 -3 7 C-3.99 6.67 -4.98 6.34 -6 6 C-5.01 5.67 -4.02 5.34 -3 5 C-1.8499169 3.03327085 -1.8499169 3.03327085 -1 1 C-0.67 0.67 -0.34 0.34 0 0 Z " fill="#410000" transform="translate(230,179)"/>
<path d="M0 0 C0.99 1.32 1.98 2.64 3 4 C2 5 2 5 -1.5625 5.0625 C-2.696875 5.041875 -3.83125 5.02125 -5 5 C-3.35 3.35 -1.7 1.7 0 0 Z " fill="#9A1210" transform="translate(142,100)"/>
<path d="M0 0 C0.66 0.33 1.32 0.66 2 1 C1.34 1.66 0.68 2.32 0 3 C0.33 3.66 0.66 4.32 1 5 C-2 6 -2 6 -4.1875 5.0625 C-4.785625 4.711875 -5.38375 4.36125 -6 4 C-4.02 2.68 -2.04 1.36 0 0 Z " fill="#D5D4D4" transform="translate(115,47)"/>
<path d="M0 0 C1.65 0 3.3 0 5 0 C5.66 1.98 6.32 3.96 7 6 C3.63279613 4.60667426 2.0140476 3.0210714 0 0 Z " fill="#CD1B1D" transform="translate(63,219)"/>
<path d="M0 0 C2.31 1.98 4.62 3.96 7 6 C6.01 6.33 5.02 6.66 4 7 C2 6 2 6 0.875 2.9375 C0.58625 1.968125 0.2975 0.99875 0 0 Z " fill="#D30B08" transform="translate(65,213)"/>
<path d="M0 0 C6.75 1.625 6.75 1.625 9 5 C5.22454612 3.90931332 2.52956528 3.0916909 0 0 Z " fill="#3D0101" transform="translate(98,144)"/>
<path d="M0 0 C1.875 0.25 1.875 0.25 4 1 C5.3125 2.875 5.3125 2.875 6 5 C5.67 5.99 5.34 6.98 5 8 C4.54625 7.195625 4.0925 6.39125 3.625 5.5625 C2.25274335 2.91143428 2.25274335 2.91143428 0 2 C0 1.34 0 0.68 0 0 Z " fill="#966061" transform="translate(209,123)"/>
<path d="M0 0 C0.66 0 1.32 0 2 0 C2 1.65 2 3.3 2 5 C0.35 5 -1.3 5 -3 5 C-2.67 4.01 -2.34 3.02 -2 2 C-1.34 2 -0.68 2 0 2 C0 1.34 0 0.68 0 0 Z " fill="#E60707" transform="translate(145,98)"/>
</svg>
